<svg width="23" height="24" viewBox="0 0 23 24" fill="none" xmlns="http://www.w3.org/2000/svg">
<path fill-rule="evenodd" clip-rule="evenodd" d="M12.421 2.83101C11.8368 2.24683 10.8845 2.26414 10.3219 2.86916L3.01732 10.725C2.73509 11.0286 2.5782 11.4277 2.5782 11.8421V20.5C2.5782 21.4061 3.3127 22.1406 4.21875 22.1406H6.58843C7.0918 22.1406 7.49985 21.7325 7.49985 21.2292V18.1304C7.49985 16.6203 8.72402 15.3961 10.2341 15.3961H12.9683C14.4784 15.3961 15.7026 16.6203 15.7026 18.1304V21.2292C15.7026 21.7325 16.1107 22.1406 16.614 22.1406H19.166C20.072 22.1406 20.8065 21.4061 20.8065 20.5V11.8961C20.8065 11.461 20.6337 11.0437 20.326 10.736L12.421 2.83101ZM8.98697 1.62791C10.2527 0.266608 12.3955 0.227665 13.7099 1.54207L21.615 9.4471C22.2645 10.0966 22.6294 10.9775 22.6294 11.8961V20.5C22.6294 22.4128 21.0787 23.9634 19.166 23.9634H16.614C15.1039 23.9634 13.8798 22.7393 13.8798 21.2292V18.1304C13.8798 17.627 13.4717 17.2189 12.9683 17.2189H10.2341C9.73074 17.2189 9.32268 17.627 9.32268 18.1304V21.2292C9.32268 22.7393 8.09852 23.9634 6.58843 23.9634H4.21875C2.30598 23.9634 0.755371 22.4128 0.755371 20.5V11.8421C0.755371 10.9671 1.08657 10.1246 1.68239 9.48378L8.98697 1.62791Z" fill="white"/>
</svg>
