<svg width="27" height="20" viewBox="0 0 27 20" fill="none" xmlns="http://www.w3.org/2000/svg">
<path fill-rule="evenodd" clip-rule="evenodd" d="M0.660889 7.11966C0.660889 3.59613 3.51727 0.739746 7.0408 0.739746H20.3442C23.8677 0.739746 26.7241 3.59613 26.7241 7.11966V12.9527C26.7241 16.4762 23.8678 19.3326 20.3442 19.3326H7.0408C3.51728 19.3326 0.660889 16.4762 0.660889 12.9527V7.11966ZM7.0408 2.56258H20.3442C21.7124 2.56258 22.9397 3.16551 23.775 4.12016L14.5897 10.4951C13.9569 10.9343 13.1163 10.9283 12.4898 10.4801L3.60596 4.12475C4.44136 3.16744 5.67044 2.56258 7.0408 2.56258ZM2.70274 5.71986C2.56054 6.1609 2.48372 6.63131 2.48372 7.11966V12.9527C2.48372 15.4695 4.524 17.5098 7.0408 17.5098H20.3442C22.861 17.5098 24.9013 15.4695 24.9013 12.9527V7.11966C24.9013 6.62814 24.8235 6.15479 24.6795 5.71127L15.629 11.9926C14.3634 12.871 12.6822 12.859 11.4292 11.9626L2.70274 5.71986Z" fill="white"/>
</svg>
