<svg width="19" height="27" viewBox="0 0 19 27" fill="none" xmlns="http://www.w3.org/2000/svg">
<path d="M8.15735 2.98125C8.00634 2.98125 7.88392 3.10367 7.88392 3.25468C7.88392 3.40569 8.00634 3.5281 8.15735 3.5281H10.7549C10.9059 3.5281 11.0283 3.40569 11.0283 3.25468C11.0283 3.10367 10.9059 2.98125 10.7549 2.98125H8.15735Z" fill="white"/>
<path fill-rule="evenodd" clip-rule="evenodd" d="M10.8232 22.6223C10.8232 23.3773 10.2112 23.9894 9.45611 23.9894C8.70107 23.9894 8.08899 23.3773 8.08899 22.6223C8.08899 21.8672 8.70107 21.2551 9.45611 21.2551C10.2112 21.2551 10.8232 21.8672 10.8232 22.6223ZM10.0941 22.6223C10.0941 22.9746 9.80847 23.2603 9.45611 23.2603C9.10376 23.2603 8.81812 22.9746 8.81812 22.6223C8.81812 22.2699 9.10376 21.9843 9.45611 21.9843C9.80847 21.9843 10.0941 22.2699 10.0941 22.6223Z" fill="white"/>
<path fill-rule="evenodd" clip-rule="evenodd" d="M14.1955 0.0207526C16.7123 0.0207526 18.7526 2.06103 18.7526 4.57783L18.7526 22.3488C18.7526 24.8656 16.7123 26.9059 14.1955 26.9059H4.71675C2.19994 26.9059 0.159668 24.8656 0.159668 22.3488L0.159669 4.57783C0.159669 2.06103 2.19994 0.0207518 4.71675 0.020752L14.1955 0.0207526ZM16.9297 4.57783L16.9297 18.7032H1.9825L1.9825 4.57783C1.9825 3.06775 3.20667 1.84358 4.71675 1.84358L14.1955 1.84358C15.7056 1.84358 16.9297 3.06775 16.9297 4.57783ZM1.9825 20.4349H16.9297V22.3488C16.9297 23.8589 15.7056 25.0831 14.1955 25.0831H4.71675C3.20667 25.0831 1.9825 23.8589 1.9825 22.3488L1.9825 20.4349Z" fill="white"/>
</svg>
